# xmcd database file
#
# Track frame offsets:
# 150
# 9575
# 20630
# 32825
# 41845
# 54620
# 65345
# 75890
# 86995
# 97180
# 106375
# 116150
# 123965
# 134850
# 144160
# 156030
# 168590
# 181345
# 192015
# 203660
#
# Disc length: 2859 seconds
#
# Revision: 2
# Processed by: cddbd v1.5.2PL0 Copyright (c) Steve Scherf et al.
# Submitted via: CD-Runner 2006.50
#
DISCID=170b2914
DTITLE=Jim Reeves - The Essential Collection - Disc 1
DYEAR=1963
DGENRE=Country
TTITLE0=Waiting For A Train
TTITLE1=According To My Heart
TTITLE2=Am I Losing You
TTITLE3=Pickin' A Chicken
TTITLE4=Have I Told You Lately That I Love You
TTITLE5=Love Me A Little Bit More
TTITLE6=Your Old Love Letters
TTITLE7=Oklahoma Hills
TTITLE8=He'll Have To Go
TTITLE9=Billy Bayou
TTITLE10=I'm Getting Better
TTITLE11=I Know One
TTITLE12=I Missed Me
TTITLE13=I'd Like To Be
TTITLE14=Mexican Joe
TTITLE15=Bimbo
TTITLE16=Butterfly Love
TTITLE17=Beatin' On The Ding Dong
TTITLE18=Are You The One
TTITLE19=Where Does A Broken Heart Go
EXTD=
EXTT0=
EXTT1=
EXTT2=
EXTT3=
EXTT4=
EXTT5=
EXTT6=
EXTT7=
EXTT8=
EXTT9=
EXTT10=
EXTT11=
EXTT12=
EXTT13=
EXTT14=
EXTT15=
EXTT16=
EXTT17=
EXTT18=
EXTT19=
PLAYORDER=
